<svg viewBox="0 0 192 192" xmlns="http://www.w3.org/2000/svg">
  <defs>
    <linearGradient id="bgGradient" x1="0%" y1="0%" x2="100%" y2="100%">
      <stop offset="0%" style="stop-color:#9146FF;stop-opacity:1" />
      <stop offset="100%" style="stop-color:#772CE8;stop-opacity:1" />
    </linearGradient>
    <linearGradient id="faceGradient" x1="0%" y1="0%" x2="100%" y2="100%">
      <stop offset="0%" style="stop-color:#FFD700;stop-opacity:1" />
      <stop offset="100%" style="stop-color:#FFA500;stop-opacity:1" />
    </linearGradient>
  </defs>
  
  <!-- Background circle with Twitch purple gradient -->
  <circle cx="96" cy="96" r="88" fill="url(#bgGradient)" stroke="#FFFFFF" stroke-width="8"/>
  
  <!-- Chat bubble -->
  <path d="M40 60 Q40 45 55 45 L137 45 Q152 45 152 60 L152 100 Q152 115 137 115 L85 115 L65 135 L65 115 L55 115 Q40 115 40 100 Z" 
        fill="#FFFFFF" stroke="none"/>
  
  <!-- Emote face (happy/laughing expression) -->
  <circle cx="96" cy="82" r="28" fill="url(#faceGradient)" stroke="#333333" stroke-width="2"/>
  
  <!-- Eyes -->
  <ellipse cx="88" cy="76" rx="4" ry="6" fill="#333333"/>
  <ellipse cx="104" cy="76" rx="4" ry="6" fill="#333333"/>
  
  <!-- Mouth (big smile) -->
  <path d="M82 85 Q96 95 110 85" stroke="#333333" stroke-width="3" fill="none" stroke-linecap="round"/>
  
  <!-- Small text/chat lines to represent copypasta -->
  <rect x="48" y="100" width="20" height="2" rx="1" fill="#9146FF" opacity="0.6"/>
  <rect x="72" y="100" width="16" height="2" rx="1" fill="#9146FF" opacity="0.6"/>
  <rect x="48" y="105" width="24" height="2" rx="1" fill="#9146FF" opacity="0.6"/>
  
</svg>